<?xml version="1.0" encoding="UTF-8"?>
<svg id="Layer_2" data-name="Layer 2" xmlns="http://www.w3.org/2000/svg" xmlns:xlink="http://www.w3.org/1999/xlink" viewBox="0 0 114 114">
  <defs>
    <style>
      .cls-1 {
        fill: #f0f;
        stroke: #fff;
        stroke-miterlimit: 10;
        stroke-width: .5px;
      }

      .cls-2 {
        fill: url(#radial-gradient);
      }

      .cls-3 {
        fill: url(#radial-gradient-2);
        opacity: .5;
      }
    </style>
    <radialGradient id="radial-gradient" cx="57" cy="57" fx="57" fy="57" r="57" gradientUnits="userSpaceOnUse">
      <stop offset="0" stop-color="#6600e0"/>
      <stop offset=".37" stop-color="#3f0081"/>
      <stop offset=".67" stop-color="#22003b"/>
      <stop offset=".89" stop-color="#100010"/>
      <stop offset="1" stop-color="#0a0000"/>
    </radialGradient>
    <radialGradient id="radial-gradient-2" cy="57" fy="57" r="57" xlink:href="#radial-gradient"/>
  </defs>
  <rect class="cls-2" x="0" y="0" width="114" height="114" rx="57" ry="57"/>
  <path class="cls-1" d="m90.5,54.5v3h-7.5c-.17,0-.34-.01-.5-.03-1.74-.19-3.18-1.37-3.74-2.97-.04-.1-.08-.21-.1-.32-.11-.38-.16-.77-.16-1.18v-3c0-.83-.67-1.5-1.5-1.5s-1.5.67-1.5,1.5v13c0,.17-.01.34-.03.5-.25,2.25-2.15,4-4.47,4s-4.22-1.75-4.47-4c-.02-.16-.03-.33-.03-.5v-22.5c0-1.1-.9-2-2-2s-2,.9-2,2v43.5c0,.17-.01.34-.03.5-.25,2.25-2.15,4-4.47,4s-4.22-1.75-4.47-4c-.02-.16-.03-.33-.03-.5V29.5c0-1.1-.9-2-2-2s-2,.9-2,2v39.5c0,.53-.09,1.03-.26,1.5-.61,1.75-2.28,3-4.24,3s-3.63-1.25-4.24-3c-.17-.47-.26-.97-.26-1.5v-23c0-.83-.67-1.5-1.5-1.5s-1.5.67-1.5,1.5v7c0,.53-.09,1.03-.26,1.5-.45,1.28-1.46,2.29-2.74,2.74-.47.17-.97.26-1.5.26h-6.5v-3h6.5c.83,0,1.5-.67,1.5-1.5v-7c0-.17.01-.34.03-.5.25-2.25,2.15-4,4.47-4s4.22,1.75,4.47,4c.02.16.03.33.03.5v24c0,.83.67,1.5,1.5,1.5s1.5-.67,1.5-1.5V29.5c0-2.76,2.24-5,5-5s5,2.24,5,5v54.5c0,.83.67,1.5,1.5,1.5s1.5-.67,1.5-1.5v-43.5c0-.34.03-.68.1-1,.46-2.28,2.48-4,4.9-4s4.44,1.72,4.9,4c.07.32.1.66.1,1v22.5c0,.83.67,1.5,1.5,1.5s1.5-.67,1.5-1.5v-13c0-.17.01-.34.03-.5.25-2.25,2.15-4,4.47-4,2.08,0,3.83,1.4,4.34,3.32.06.22.11.45.13.68.02.16.03.33.03.5v3c0,.83.67,1.5,1.5,1.5h7.5Z"/>
  <rect class="cls-3" x="0" y="0" width="114" height="114" rx="57" ry="57"/>
</svg>