<?xml version="1.0" encoding="UTF-8"?>
<svg id="Layer_1" data-name="Layer 1" xmlns="http://www.w3.org/2000/svg" xmlns:xlink="http://www.w3.org/1999/xlink" viewBox="0 0 1400.23 722.15">
  <defs>
    <style>
      .cls-1 {
        fill: #fff;
      }

      .cls-2 {
        fill: #ff0090;
      }

      .cls-2, .cls-3 {
        stroke: #fff;
        stroke-miterlimit: 10;
      }

      .cls-4 {
        fill: url(#radial-gradient-3);
        opacity: .5;
      }

      .cls-5 {
        fill: url(#radial-gradient);
      }

      .cls-6 {
        fill: url(#radial-gradient-2);
      }

      .cls-3 {
        fill: #f0f;
        opacity: .57;
        stroke-width: .5px;
      }
    </style>
    <radialGradient id="radial-gradient" cx="1343.23" cy="665.15" fx="1343.23" fy="665.15" r="57" gradientUnits="userSpaceOnUse">
      <stop offset="0" stop-color="#6600e0"/>
      <stop offset=".37" stop-color="#3f0081"/>
      <stop offset=".67" stop-color="#22003b"/>
      <stop offset=".89" stop-color="#100010"/>
      <stop offset="1" stop-color="#0a0000"/>
    </radialGradient>
    <radialGradient id="radial-gradient-2" cx="1344.34" cy="679.99" fx="1344.34" fy="679.99" r="4.12" xlink:href="#radial-gradient"/>
    <radialGradient id="radial-gradient-3" cx="1343" cy="665" fx="1343" fy="665" xlink:href="#radial-gradient"/>
  </defs>
  <image width="1000" height="1076" transform="scale(.61)" xlink:href="big-music-icons-set-vector-1593161.jpg"/>
  <rect class="cls-5" x="1286.23" y="608.15" width="114" height="114" rx="57" ry="57"/>
  <g>
    <circle class="cls-3" cx="1344.05" cy="679.99" r="16.86"/>
    <circle class="cls-1" cx="1344.34" cy="679.99" r="7.87"/>
    <circle class="cls-6" cx="1344.34" cy="679.99" r="4.12"/>
    <circle class="cls-1" cx="1344.34" cy="679.99" r="1.12"/>
    <path class="cls-2" d="m1327.4,668.14c11.34-11.11,22.15-11.22,32.72.43,3.81-5.38,4.17-11.24-.39-17.8-.43,2.46-1.48,4.59-3.48,6.21,0-6.79-.95-11.83-3.11-14.61-.22,4.63-1.55,7.72-5.37,7.35,1.51-6.87-2-11.89-7.2-16.28,1,7.76,1.28,15.23-4.61,17.19-2.11-1.25-3.06-3.77-3.56-7.65-2.85,4.03-4.85,8.63-2.72,16.06-2.78-1.07-4.62-2.71-4.4-5.6-2.45,3.85-3.22,8.25,2.13,14.69Z"/>
    <polygon class="cls-1" points="1349.67 687.86 1349.74 687.8 1351.92 685.61 1355.86 689.55 1351.92 693.48 1349.67 687.86"/>
    <polygon class="cls-1" points="1335.06 667.63 1339.56 672.12 1337.31 674.37 1335.06 667.63"/>
  </g>
  <rect class="cls-4" x="1286" y="608" width="114" height="114" rx="57" ry="57"/>
</svg>