<?xml version="1.0" encoding="UTF-8"?>
<svg id="Layer_1" data-name="Layer 1" xmlns="http://www.w3.org/2000/svg" xmlns:xlink="http://www.w3.org/1999/xlink" viewBox="0 0 114 114">
  <defs>
    <style>
      .cls-1 {
        fill: #f0f;
        stroke: #fff;
        stroke-miterlimit: 10;
        stroke-width: .5px;
      }

      .cls-2, .cls-3 {
        fill: url(#radial-gradient);
      }

      .cls-3 {
        opacity: .5;
      }
    </style>
    <radialGradient id="radial-gradient" cx="57" cy="57" fx="57" fy="57" r="57" gradientUnits="userSpaceOnUse">
      <stop offset="0" stop-color="#6600e0"/>
      <stop offset=".37" stop-color="#3f0081"/>
      <stop offset=".67" stop-color="#22003b"/>
      <stop offset=".89" stop-color="#100010"/>
      <stop offset="1" stop-color="#0a0000"/>
    </radialGradient>
  </defs>
  <rect class="cls-2" x="0" y="0" width="114" height="114" rx="57" ry="57"/>
  <g>
    <path class="cls-1" d="m78.15,34.62h-42.5c-4.13,0-7.48,3.35-7.48,7.48v29.57c0,4.13,3.35,7.48,7.48,7.48h42.5c4.13,0,7.48-3.35,7.48-7.48v-29.57c0-4.13-3.35-7.48-7.48-7.48Zm-28.55,40.93l2.94-3.4h8.73l2.94,3.4h-14.6Zm32.44-3.32c0,1.84-1.49,3.32-3.32,3.32h-9.4l-2.94-3.4-3.34-3.87h-12.27l-3.35,3.87-2.94,3.4h-9.39c-1.84,0-3.32-1.49-3.32-3.32v-30.69c0-1.84,1.49-3.32,3.32-3.32h43.62c1.84,0,3.32,1.49,3.32,3.32v30.69Z"/>
    <path class="cls-1" d="m70.66,46.76h-27.52c-3.5,0-6.35,2.84-6.35,6.35v.23c0,3.05,2.16,5.61,5.03,6.21.03,0,.06,0,.09.01.39.08.8.12,1.23.12h27.52c.42,0,.83-.04,1.23-.12.03,0,.06-.01.09-.01,2.87-.6,5.03-3.16,5.03-6.21v-.23c0-3.5-2.84-6.35-6.35-6.35Zm-27.76,9.64c-1.79,0-3.23-1.44-3.23-3.23s1.44-3.23,3.23-3.23,3.23,1.44,3.23,3.23-1.44,3.23-3.23,3.23Zm22.64.36h-17.26c.69-1.03,1.09-2.26,1.09-3.59s-.4-2.56-1.09-3.59h17.26c-.69,1.03-1.09,2.26-1.09,3.59s.4,2.56,1.09,3.59Zm5.37-.36c-1.79,0-3.23-1.44-3.23-3.23s1.44-3.23,3.23-3.23,3.23,1.44,3.23,3.23-1.44,3.23-3.23,3.23Z"/>
  </g>
  <rect class="cls-3" x="0" y="0" width="114" height="114" rx="57" ry="57"/>
</svg>