<?xml version="1.0" encoding="UTF-8"?>
<svg id="Layer_1" data-name="Layer 1" xmlns="http://www.w3.org/2000/svg" xmlns:xlink="http://www.w3.org/1999/xlink" viewBox="0 0 114 114">
  <defs>
    <style>
      .cls-1 {
        fill: #f0f;
        stroke: #fff;
        stroke-miterlimit: 10;
        stroke-width: .5px;
      }

      .cls-2, .cls-3 {
        fill: url(#radial-gradient);
      }

      .cls-3 {
        opacity: .5;
      }
    </style>
    <radialGradient id="radial-gradient" cx="57" cy="57" fx="57" fy="57" r="57" gradientUnits="userSpaceOnUse">
      <stop offset="0" stop-color="#6600e0"/>
      <stop offset=".37" stop-color="#3f0081"/>
      <stop offset=".67" stop-color="#22003b"/>
      <stop offset=".89" stop-color="#100010"/>
      <stop offset="1" stop-color="#0a0000"/>
    </radialGradient>
  </defs>
  <rect class="cls-2" x="0" y="0" width="114" height="114" rx="57" ry="57"/>
  <path class="cls-1" d="m77.91,54.52c-.36-.32-.86-.52-1.41-.52-1.1,0-2,.8-2,1.77v6.66c0,7.97-6.78,14.54-15.5,15.42v-9.02c5.59-.37,10-5.02,10-10.7v-21.02c0-5.93-4.8-10.73-10.73-10.73h-2.69c-5.92,0-10.73,4.8-10.73,10.73v21.02c0,5.73,4.5,10.41,10.15,10.72v9c-8.72-.88-15.5-7.45-15.5-15.42v-6.66c0-.48-.22-.93-.59-1.25-.36-.32-.86-.52-1.41-.52-1.1,0-2,.8-2,1.77v6.66c0,1.68.25,3.32.72,4.88,2.26,7.62,9.7,13.37,18.78,14.11v2.08h-4.41c-.6,0-1.09.49-1.09,1.09v1.82c0,.6.49,1.09,1.09,1.09h12.82c.6,0,1.09-.49,1.09-1.09v-1.82c0-.6-.49-1.09-1.09-1.09h-4.41v-2.08c9.43-.78,17.09-6.95,19.02-15,.32-1.29.48-2.63.48-3.99v-6.66c0-.48-.22-.93-.59-1.25Zm-20.46,9.98h-.9c-4.44,0-8.05-3.61-8.05-8.05v-1.95h7.79c.67,0,1.21-.54,1.21-1.21v-.57c0-.67-.54-1.21-1.21-1.21h-7.79v-3h7.79c.67,0,1.21-.54,1.21-1.21v-.57c0-.67-.54-1.21-1.21-1.21h-7.79v-3h7.79c.67,0,1.21-.54,1.21-1.21v-.57c0-.67-.54-1.21-1.21-1.21h-7.79v-.95c0-4.44,3.61-8.05,8.05-8.05h.9c4.44,0,8.05,3.61,8.05,8.05v17.9c0,4.44-3.61,8.05-8.05,8.05Z"/>
  <rect class="cls-3" x="0" y="0" width="114" height="114" rx="57" ry="57"/>
</svg>