<?xml version="1.0" encoding="UTF-8"?>
<svg id="Layer_2" data-name="Layer 2" xmlns="http://www.w3.org/2000/svg" xmlns:xlink="http://www.w3.org/1999/xlink" viewBox="0 0 114 114">
  <defs>
    <style>
      .cls-1 {
        fill: #f0f;
      }

      .cls-1, .cls-2, .cls-3, .cls-4 {
        stroke: #fff;
        stroke-miterlimit: 10;
      }

      .cls-1, .cls-4 {
        stroke-width: .5px;
      }

      .cls-2, .cls-3 {
        fill: none;
        stroke-width: 2px;
      }

      .cls-5, .cls-6 {
        fill: url(#radial-gradient);
      }

      .cls-6 {
        opacity: .5;
      }

      .cls-3, .cls-4 {
        stroke-linecap: round;
      }

      .cls-4 {
        fill: #ff0090;
      }
    </style>
    <radialGradient id="radial-gradient" cx="57" cy="57" fx="57" fy="57" r="57" gradientUnits="userSpaceOnUse">
      <stop offset="0" stop-color="#6600e0"/>
      <stop offset=".37" stop-color="#3f0081"/>
      <stop offset=".67" stop-color="#22003b"/>
      <stop offset=".89" stop-color="#100010"/>
      <stop offset="1" stop-color="#0a0000"/>
    </radialGradient>
  </defs>
  <rect class="cls-5" x="0" y="0" width="114" height="114" rx="57" ry="57"/>
  <g>
    <path class="cls-3" d="m68.29,70.26c.57-.23,3.06-1.19,5.2,0,2.55,1.42,3.35,5.18,2.43,7.63-1.83,4.88-11.18,6.46-17.68,4.85-2.06-.51-2.31-.96-4.51-1.39-4.87-.93-9.19.22-12.13,1.39"/>
    <path class="cls-1" d="m68.65,44.61c-1.47,0-2.88-.3-4.16-.84v10.89h-19.76v-19.76h13.22c-.03-.34-.05-.69-.05-1.04,0-1.47.3-2.88.84-4.16h-13.22c-3.31,0-5.99,2.68-5.99,5.99v36.21c0,3.31,2.68,5.99,5.99,5.99h18.18c3.31,0,5.99-2.68,5.99-5.99v-27.34c-.34.03-.69.05-1.04.05Z"/>
    <circle class="cls-2" cx="54.61" cy="67.23" r="7.19"/>
    <polygon class="cls-4" points="52.48 70.5 58.14 67.23 52.48 63.97 52.48 70.5"/>
    <path class="cls-4" d="m68.64,24.5c-5.17,0-9.36,4.19-9.36,9.36,0,1.3.27,2.55.75,3.67l-7.13,10.75,10.28-6.82c1.54,1.1,3.42,1.76,5.46,1.76,5.17,0,9.36-4.19,9.36-9.36s-4.19-9.36-9.36-9.36Z"/>
    <path class="cls-1" d="m71.67,30.73v1.22l-1.69-1.25v5.46c-.13.51-.49,1.02-1.04,1.39-.14.1-.29.18-.46.26-1.19.56-2.5.28-2.92-.61-.42-.89.22-2.07,1.41-2.62.68-.32,1.39-.37,1.96-.18v-5.67h0s.73.54.73.54l1.98,1.47Z"/>
  </g>
  <rect class="cls-6" x="0" y="0" width="114" height="114" rx="57" ry="57"/>
</svg>