<?xml version="1.0" encoding="UTF-8"?>
<svg id="Layer_1" data-name="Layer 1" xmlns="http://www.w3.org/2000/svg" xmlns:xlink="http://www.w3.org/1999/xlink" viewBox="0 0 114.23 114.15">
  <defs>
    <style>
      .cls-1 {
        fill: #f0f;
        opacity: .57;
        stroke-width: .5px;
      }

      .cls-1, .cls-2 {
        stroke: #fff;
        stroke-miterlimit: 10;
      }

      .cls-1, .cls-3 {
        isolation: isolate;
      }

      .cls-4 {
        fill: #fff;
      }

      .cls-5 {
        fill: url(#radial-gradient-2);
      }

      .cls-2 {
        fill: #ff0090;
      }

      .cls-6 {
        fill: url(#radial-gradient);
      }

      .cls-3 {
        fill: url(#radial-gradient-3);
        opacity: .5;
      }
    </style>
    <radialGradient id="radial-gradient" cx="57.23" cy="-551.15" fx="57.23" fy="-551.15" r="57" gradientTransform="translate(0 -494) scale(1 -1)" gradientUnits="userSpaceOnUse">
      <stop offset="0" stop-color="#6600e0"/>
      <stop offset=".37" stop-color="#3f0081"/>
      <stop offset=".67" stop-color="#22003b"/>
      <stop offset=".89" stop-color="#100010"/>
      <stop offset="1" stop-color="#0a0000"/>
    </radialGradient>
    <radialGradient id="radial-gradient-2" cx="58.34" cy="-565.99" fx="58.34" fy="-565.99" r="4.12" gradientTransform="translate(0 -494) scale(1 -1)" gradientUnits="userSpaceOnUse">
      <stop offset="0" stop-color="#6600e0"/>
      <stop offset=".37" stop-color="#3f0081"/>
      <stop offset=".67" stop-color="#22003b"/>
      <stop offset=".89" stop-color="#100010"/>
      <stop offset="1" stop-color="#0a0000"/>
    </radialGradient>
    <radialGradient id="radial-gradient-3" cx="57" cy="-551" fx="57" fy="-551" r="57" gradientTransform="translate(0 -494) scale(1 -1)" gradientUnits="userSpaceOnUse">
      <stop offset="0" stop-color="#6600e0"/>
      <stop offset=".37" stop-color="#3f0081"/>
      <stop offset=".67" stop-color="#22003b"/>
      <stop offset=".89" stop-color="#100010"/>
      <stop offset="1" stop-color="#0a0000"/>
    </radialGradient>
  </defs>
  <path class="cls-6" d="M57.23,.15h0c31.48,0,57,25.52,57,57h0c0,31.48-25.52,57-57,57h0C25.75,114.15,.23,88.63,.23,57.15H.23C.23,25.67,25.75,.15,57.23,.15Z"/>
  <g>
    <circle class="cls-1" cx="58.05" cy="71.99" r="16.86"/>
    <circle class="cls-4" cx="58.34" cy="71.99" r="7.87"/>
    <circle class="cls-5" cx="58.34" cy="71.99" r="4.12"/>
    <circle class="cls-4" cx="58.34" cy="71.99" r="1.12"/>
    <path class="cls-2" d="M41.4,60.14c11.34-11.11,22.15-11.22,32.72,.43,3.81-5.38,4.17-11.24-.39-17.8-.43,2.46-1.48,4.59-3.48,6.21,0-6.79-.95-11.83-3.11-14.61-.22,4.63-1.55,7.72-5.37,7.35,1.51-6.87-2-11.89-7.2-16.28,1,7.76,1.28,15.23-4.61,17.19-2.11-1.25-3.06-3.77-3.56-7.65-2.85,4.03-4.85,8.63-2.72,16.06-2.78-1.07-4.62-2.71-4.4-5.6-2.45,3.85-3.22,8.25,2.13,14.69h-.01Z"/>
    <polygon class="cls-4" points="63.67 79.86 63.74 79.8 65.92 77.61 69.86 81.55 65.92 85.48 63.67 79.86"/>
    <polygon class="cls-4" points="49.06 59.63 53.56 64.12 51.31 66.37 49.06 59.63"/>
  </g>
  <path class="cls-3" d="M57,0h0c31.48,0,57,25.52,57,57h0c0,31.48-25.52,57-57,57h0C25.52,114,0,88.48,0,57H0C0,25.52,25.52,0,57,0Z"/>
</svg>