<?xml version="1.0" encoding="UTF-8"?>
<svg id="Layer_1" data-name="Layer 1" xmlns="http://www.w3.org/2000/svg" xmlns:xlink="http://www.w3.org/1999/xlink" viewBox="0 0 114 114">
  <defs>
    <style>
      .cls-1 {
        fill: #ff0090;
      }

      .cls-1, .cls-2 {
        stroke: #fff;
        stroke-miterlimit: 10;
      }

      .cls-2 {
        fill: #f0f;
        stroke-width: .5px;
      }

      .cls-3 {
        fill: url(#radial-gradient);
      }

      .cls-4 {
        fill: url(#radial-gradient-2);
        opacity: .5;
      }
    </style>
    <radialGradient id="radial-gradient" cx="57" cy="57" fx="57" fy="57" r="57" gradientUnits="userSpaceOnUse">
      <stop offset="0" stop-color="#6600e0"/>
      <stop offset=".37" stop-color="#3f0081"/>
      <stop offset=".67" stop-color="#22003b"/>
      <stop offset=".89" stop-color="#100010"/>
      <stop offset="1" stop-color="#0a0000"/>
    </radialGradient>
    <radialGradient id="radial-gradient-2" cy="57" fy="57" r="57" xlink:href="#radial-gradient"/>
  </defs>
  <rect class="cls-3" x="0" y="0" width="114" height="114" rx="57" ry="57"/>
  <g>
    <path class="cls-2" d="m51.5,55.62c-.13.35-.48,1.26-1.34,1.68-1.29.63-2.86-.24-3.03-.34-2.05-1.14-2.78-4.79-2.02-9.08-1.36.65-2.01,1.45-2.35,2.02-1.54,2.55.39,5.07,1.01,11.77.22,2.34.33,3.62,0,5.38-.51,2.78-1.45,3.25-2.35,6.39-.49,1.72-1.18,4.12-.67,7.06.17,1.01.78,4.05,3.36,6.39.33.3,1.4,1.23,3.36,2.02,6.86,2.76,13.83-.53,14.12-.67,3.42-1.67,5.55-4.1,6.72-5.72-.81.29-2.58.81-4.71.34-.67-.15-4.05-.89-5.38-4.03-1.29-3.05.39-5.91.67-6.39,1.65-2.81,4.49-3.56,5.04-3.7-.03-.69-.05-1.74,0-3.03.19-4.78,1.2-7.98,1.68-10.09.61-2.68,1.04-6.67,0-12.1-.61,1.48-1.07,2.66-1.34,3.36-.81,2.08-2.27,5.92-4.03,8.07-.4.49-1.05,1.16-2.02,1.34-.25.05-.62.13-1.01,0-.76-.25-1.27-1.19-1.34-2.35-.34-6.16-.67-12.33-1.01-18.49.56-.56,1.12-1.12,1.68-1.68v-11.77c-.99.24-1.76.62-2.35,1.01-4.66,3.04-4.1,10.37-4.03,11.09.56.45,1.12.9,1.68,1.34.07,1.28.93,16.87-.34,20.17Z"/>
    <path class="cls-1" d="m49.49,74.11h5.04v-14.79c-.84.84-1.68,1.68-2.53,2.53h-3.53c.52,2.47.29,4.33,0,5.54-.32,1.33-.63,1.54-2.35,5.72-1.11,2.69-1.32,3.41-1.34,4.37-.01.41-.07,2.46,1.01,4.03,1.53,2.23,5.07,3.07,8.74,2.02v-5.05h-5.04c0-1.45,0-2.91,0-4.36Z"/>
    <path class="cls-2" d="m77.24,59.58v3.51l-4.87-3.62v15.76c-.36,1.48-1.42,2.95-2.99,4.02-.4.28-.84.53-1.31.75-3.45,1.61-7.22.82-8.42-1.75-1.2-2.58.62-5.97,4.07-7.57,1.96-.91,4.02-1.05,5.66-.53v-16.36l.02-.02,2.11,1.57,5.73,4.25Z"/>
  </g>
  <rect class="cls-4" x="0" y="0" width="114" height="114" rx="57" ry="57"/>
</svg>