<?xml version="1.0" encoding="UTF-8"?>
<svg xmlns="http://www.w3.org/2000/svg" xmlns:xlink="http://www.w3.org/1999/xlink" viewBox="0 0 114 114.17">
  <defs>
    <style>
      .cls-1 {
        fill: #f0f;
        stroke: #fff;
        stroke-miterlimit: 10;
        stroke-width: .5px;
      }

      .cls-2 {
        fill: url(#radial-gradient);
      }

      .cls-3 {
        fill: url(#radial-gradient-2);
        opacity: .5;
      }
    </style>
    <radialGradient id="radial-gradient" cx="57" cy="57" fx="57" fy="57" r="57" gradientUnits="userSpaceOnUse">
      <stop offset="0" stop-color="#6600e0"/>
      <stop offset=".37" stop-color="#3f0081"/>
      <stop offset=".67" stop-color="#22003b"/>
      <stop offset=".89" stop-color="#100010"/>
      <stop offset="1" stop-color="#0a0000"/>
    </radialGradient>
    <radialGradient id="radial-gradient-2" cy="57.17" fy="57.17" r="57" xlink:href="#radial-gradient"/>
  </defs>
  <g id="Layer_1" data-name="Layer 1">
    <rect class="cls-2" x="0" y="0" width="114" height="114" rx="57" ry="57"/>
  </g>
  <g id="Layer_2" data-name="Layer 2">
    <path class="cls-1" d="m71.9,32.4l-21.71,5.01-3.1.71v30.02c-1.24-.84-2.73-1.33-4.34-1.33-4.28,0-7.75,3.47-7.75,7.75s3.47,7.75,7.75,7.75c1.61,0,3.1-.49,4.34-1.33,1.48-1,2.59-2.5,3.1-4.25v-29.18l21.71-5.01v19.39c-1.24-.84-2.73-1.33-4.34-1.33-4.28,0-7.75,3.47-7.75,7.75s3.47,7.75,7.75,7.75c1.61,0,3.1-.49,4.34-1.33,1.48-1,2.59-2.5,3.1-4.25V31.68l-3.1.72Zm-29.15,46.51c-2.4,0-4.34-1.94-4.34-4.34s1.94-4.34,4.34-4.34,4.34,1.94,4.34,4.34-1.94,4.34-4.34,4.34Zm24.81-6.2c-2.4,0-4.34-1.94-4.34-4.34s1.94-4.34,4.34-4.34,4.34,1.94,4.34,4.34-1.94,4.34-4.34,4.34Zm4.34-33.34l-21.71,5.01v-3.78l21.71-5.01v3.78Z"/>
    <rect class="cls-3" x="0" y=".17" width="114" height="114" rx="57" ry="57"/>
  </g>
</svg>