<?xml version="1.0" encoding="UTF-8"?>
<svg id="Layer_1" data-name="Layer 1" xmlns="http://www.w3.org/2000/svg" xmlns:xlink="http://www.w3.org/1999/xlink" viewBox="0 0 114 114">
  <defs>
    <style>
      .cls-1 {
        fill: #f0f;
        stroke: #fff;
        stroke-miterlimit: 10;
        stroke-width: .5px;
      }

      .cls-2 {
        fill: url(#radial-gradient);
      }

      .cls-3 {
        fill: url(#radial-gradient-2);
        opacity: .5;
      }
    </style>
    <radialGradient id="radial-gradient" cx="57" cy="57" fx="57" fy="57" r="57" gradientUnits="userSpaceOnUse">
      <stop offset="0" stop-color="#6600e0"/>
      <stop offset=".37" stop-color="#3f0081"/>
      <stop offset=".67" stop-color="#22003b"/>
      <stop offset=".89" stop-color="#100010"/>
      <stop offset="1" stop-color="#0a0000"/>
    </radialGradient>
    <radialGradient id="radial-gradient-2" cx="57" fx="57" xlink:href="#radial-gradient"/>
  </defs>
  <g>
    <rect class="cls-2" x="0" y="0" width="114" height="114" rx="57" ry="57"/>
    <g>
      <path class="cls-1" d="m41.38,40.27h-1.56v-5.46c0-.48-.2-.92-.51-1.24s-.75-.51-1.24-.51c-.97,0-1.75.78-1.75,1.75v5.46h-1.56c-1.21,0-2.3.49-3.09,1.28-.79.79-1.28,1.88-1.28,3.09,0,2.41,1.95,4.36,4.36,4.36h1.56v30.18c0,.97.78,1.75,1.75,1.75s1.75-.78,1.75-1.75v-30.18h1.56c1.21,0,2.3-.49,3.09-1.28.79-.79,1.28-1.88,1.28-3.09,0-2.41-1.95-4.36-4.36-4.36Zm1.52,5.48c-.29.29-.68.47-1.12.47h-7.4c-.88,0-1.59-.71-1.59-1.59,0-.44.18-.83.47-1.12.29-.29.68-.47,1.12-.47h7.4c.88,0,1.59.71,1.59,1.59,0,.44-.18.83-.47,1.12Z"/>
      <path class="cls-1" d="m60.31,66.19h-1.56v-31.37c0-.97-.78-1.75-1.75-1.75h0c-.97,0-1.75.78-1.75,1.75v31.37h-1.56c-1.2,0-2.29.49-3.08,1.28-.79.79-1.28,1.88-1.28,3.09,0,2.41,1.96,4.36,4.36,4.36h1.56v4.27c0,.97.78,1.75,1.75,1.75h0c.97,0,1.75-.78,1.75-1.75v-4.27h1.56c1.21,0,2.3-.49,3.09-1.28.79-.79,1.28-1.88,1.28-3.09,0-2.41-1.95-4.36-4.36-4.36Zm1.52,5.48c-.29.29-.68.47-1.12.47h-7.4c-.87,0-1.59-.71-1.59-1.59,0-.44.18-.83.47-1.12.29-.29.68-.47,1.12-.47h7.4c.88,0,1.59.71,1.59,1.59,0,.44-.17.83-.47,1.12Z"/>
      <path class="cls-1" d="m79.23,47.15h-1.56v-12.33c0-.48-.2-.92-.51-1.24s-.75-.51-1.24-.51c-.97,0-1.75.78-1.75,1.75v12.33h-1.56c-1.21,0-2.3.49-3.09,1.28-.79.79-1.28,1.88-1.28,3.09,0,2.41,1.95,4.36,4.36,4.36h1.56v23.31c0,.97.79,1.75,1.75,1.75s1.75-.78,1.75-1.75v-23.31h1.56c1.21,0,2.3-.49,3.09-1.28.79-.79,1.28-1.88,1.28-3.09,0-2.41-1.95-4.36-4.36-4.36Zm1.52,5.48c-.29.29-.68.47-1.12.47h-7.4c-.88,0-1.59-.71-1.59-1.59,0-.44.18-.83.47-1.12.29-.29.68-.47,1.12-.47h7.4c.88,0,1.59.71,1.59,1.59,0,.44-.18.83-.47,1.12Z"/>
    </g>
  </g>
  <rect class="cls-3" x="0" y="0" width="114" height="114" rx="57" ry="57"/>
</svg>