<?xml version="1.0" encoding="utf-8"?>
<!-- Generator: Adobe Illustrator 27.3.1, SVG Export Plug-In . SVG Version: 6.00 Build 0)  -->
<svg version="1.1" id="Layer_1" xmlns="http://www.w3.org/2000/svg" xmlns:xlink="http://www.w3.org/1999/xlink" x="0px" y="0px"
	 viewBox="0 0 959 594" style="enable-background:new 0 0 959 594;" xml:space="preserve">
<style type="text/css">
	.st0{fill:#1A1A1A;}
	.st1{fill:#B3B3B3;}
	.st2{fill:#662D91;}
	.st3{fill:#C335FF;}
	.st4{fill:#333333;}
	.st5{fill:#666666;}
	.st6{enable-background:new    ;}
	.st7{fill:#FFFFFF;}
	.st8{fill:none;stroke:#000000;stroke-width:2;stroke-miterlimit:10;}
</style>
<g>
	<path class="st0" d="M757.2,187.5c-12.3,0-22.2-10-22.2-22.2V74.8c0-13.9-11.3-25.2-25.2-25.2H248.2c-13.9,0-25.2,11.3-25.2,25.2
		v90.5c0,12.3-10,22.2-22.2,22.2s-22.2-10-22.2-22.2V27.8c0-12.3,10-22.2,22.2-22.2h556.5c12.3,0,22.2,10,22.2,22.2v137.5
		C779.5,177.5,769.5,187.5,757.2,187.5z"/>
	<path d="M757.2,7c11.4,0,20.8,9.3,20.8,20.8v137.5c0,11.4-9.3,20.8-20.8,20.8s-20.8-9.3-20.8-20.8V74.8c0-14.8-12-26.8-26.8-26.8
		H248.2c-14.8,0-26.8,12-26.8,26.8v90.5c0,11.4-9.3,20.8-20.8,20.8s-20.8-9.3-20.8-20.8V27.8C180,16.3,189.3,7,200.8,7H757.2
		 M757.2,4H200.8C187.6,4,177,14.6,177,27.8v137.5c0,13.1,10.6,23.8,23.8,23.8s23.8-10.6,23.8-23.8V74.8c0-13.1,10.6-23.8,23.8-23.8
		h461.5c13.1,0,23.8,10.6,23.8,23.8v90.5c0,13.1,10.6,23.8,23.8,23.8s23.8-10.6,23.8-23.8V27.8C781,14.6,770.4,4,757.2,4L757.2,4z"
		/>
</g>
<g>
	<g>
		<rect x="247.5" y="122.5" class="st1" width="60" height="26"/>
		<path d="M306,124v23h-57v-23H306 M309,121h-63v29h63V121L309,121z"/>
	</g>
	<g>
		<rect x="320.5" y="122.5" class="st1" width="60" height="26"/>
		<path d="M379,124v23h-57v-23H379 M382,121h-63v29h63V121L382,121z"/>
	</g>
	<g>
		<rect x="393.5" y="122.5" class="st1" width="60" height="26"/>
		<path d="M452,124v23h-57v-23H452 M455,121h-63v29h63V121L455,121z"/>
	</g>
	<g>
		<rect x="503.5" y="122.5" class="st1" width="60" height="26"/>
		<path d="M562,124v23h-57v-23H562 M565,121h-63v29h63V121L565,121z"/>
	</g>
	<g>
		<rect x="576.5" y="122.5" class="st1" width="60" height="26"/>
		<path d="M635,124v23h-57v-23H635 M638,121h-63v29h63V121L638,121z"/>
	</g>
	<g>
		<rect x="649.5" y="122.5" class="st1" width="60" height="26"/>
		<path d="M708,124v23h-57v-23H708 M711,121h-63v29h63V121L711,121z"/>
	</g>
</g>
<g>
	<path class="st2" d="M28.1,587.5c-12.4,0-22.6-10.1-22.6-22.6V163.1c0-12.4,10.1-22.6,22.6-22.6H930c12.4,0,22.6,10.1,22.6,22.6
		V565c0,12.4-10.1,22.6-22.6,22.6L28.1,587.5L28.1,587.5z"/>
	<path d="M929.9,142c11.6,0,21.1,9.5,21.1,21.1V565c0,11.6-9.5,21.1-21.1,21.1H28.1C16.5,586,7,576.5,7,564.9V163.1
		c0-11.6,9.5-21.1,21.1-21.1H929.9 M929.9,139H28.1C14.8,139,4,149.8,4,163.1V565c0,13.2,10.8,24,24.1,24H930
		c13.3,0,24.1-10.8,24.1-24.1V163.1C954,149.8,943.2,139,929.9,139L929.9,139z"/>
</g>
<g>
	<path class="st3" d="M324.6,227.5c-2.2,0-4-1.8-4-4v-58.1c0-2.2,1.8-4,4-4h308.9c2.2,0,4,1.8,4,4v58.1c0,2.2-1.8,4-4,4H324.6z"/>
	<path d="M633.4,163c1.4,0,2.5,1.1,2.5,2.5v58.1c0,1.4-1.1,2.5-2.5,2.5H324.6c-1.4,0-2.5-1.1-2.5-2.5v-58.1c0-1.4,1.1-2.5,2.5-2.5
		H633.4 M633.4,160H324.6c-3,0-5.5,2.4-5.5,5.5v58.1c0,3,2.4,5.5,5.5,5.5h308.9c3,0,5.5-2.4,5.5-5.5v-58.1
		C638.9,162.4,636.5,160,633.4,160L633.4,160z"/>
</g>
<g>
	<circle class="st4" cx="204" cy="364" r="148.5"/>
	<path d="M204,217c39.3,0,76.2,15.3,103.9,43.1C335.7,287.8,351,324.7,351,364s-15.3,76.2-43.1,103.9C280.2,495.7,243.3,511,204,511
		s-76.2-15.3-103.9-43.1C72.3,440.2,57,403.3,57,364s15.3-76.2,43.1-103.9C127.8,232.3,164.7,217,204,217 M204,214
		c-82.8,0-150,67.2-150,150s67.2,150,150,150s150-67.2,150-150S286.8,214,204,214L204,214z"/>
</g>
<g>
	<circle class="st5" cx="204" cy="364" r="97.5"/>
	<path d="M204,268c52.9,0,96,43.1,96,96s-43.1,96-96,96s-96-43.1-96-96S151.1,268,204,268 M204,265c-54.7,0-99,44.3-99,99
		s44.3,99,99,99s99-44.3,99-99S258.7,265,204,265L204,265z"/>
</g>
<g>
	<circle class="st4" cx="752" cy="364" r="148.5"/>
	<path d="M752,217c39.3,0,76.2,15.3,103.9,43.1C883.7,287.8,899,324.7,899,364s-15.3,76.2-43.1,103.9C828.2,495.7,791.3,511,752,511
		s-76.2-15.3-103.9-43.1C620.3,440.2,605,403.3,605,364s15.3-76.2,43.1-103.9C675.8,232.3,712.7,217,752,217 M752,214
		c-82.8,0-150,67.2-150,150s67.2,150,150,150s150-67.2,150-150S834.8,214,752,214L752,214z"/>
</g>
<g>
	<circle class="st5" cx="752" cy="364" r="97.5"/>
	<path d="M752,268c52.9,0,96,43.1,96,96s-43.1,96-96,96s-96-43.1-96-96S699.1,268,752,268 M752,265c-54.7,0-99,44.3-99,99
		s44.3,99,99,99s99-44.3,99-99S806.7,265,752,265L752,265z"/>
</g>
<g>
	<circle class="st0" cx="203.5" cy="363.5" r="46"/>
	<path d="M203.5,319c24.5,0,44.5,20,44.5,44.5S228,408,203.5,408S159,388,159,363.5S179,319,203.5,319 M203.5,316
		c-26.2,0-47.5,21.3-47.5,47.5s21.3,47.5,47.5,47.5s47.5-21.3,47.5-47.5S229.7,316,203.5,316L203.5,316z"/>
</g>
<g>
	<circle class="st0" cx="752.5" cy="364.5" r="46"/>
	<path d="M752.5,320c24.5,0,44.5,20,44.5,44.5S777,409,752.5,409S708,389,708,364.5S728,320,752.5,320 M752.5,317
		c-26.2,0-47.5,21.3-47.5,47.5s21.3,47.5,47.5,47.5s47.5-21.3,47.5-47.5S778.7,317,752.5,317L752.5,317z"/>
</g>
<g class="st6">
	<path class="st7" d="M370.5,203.6c-0.5,4.7-5.7,8.1-12,8.1H336c-0.2,0-0.3-0.2-0.3-0.3v-34.3c0-0.2,0.2-0.3,0.3-0.3h19.6
		c0.5,0,1,0,1.4,0c0.5,0,1,0,1.4,0.1c0.5,0,1,0.1,1.4,0.1c0.5,0.1,0.9,0.1,1.4,0.3c0.5,0.1,0.9,0.2,1.4,0.4c0.5,0.2,0.9,0.3,1.3,0.5
		c0.4,0.2,0.9,0.4,1.3,0.7c2.2,1.4,3.7,3.7,3.9,6.3c0.3,3.6-1.5,6.7-4.3,8.4c-0.2,0.2-0.2,0.5,0,0.6
		C368.5,195.7,370.9,199.4,370.5,203.6z M357.2,188.5c0-0.8-0.6-1.4-1.4-1.4h-7.2c-0.2,0-0.3,0.2-0.3,0.3v2.3c0,0.2,0.2,0.3,0.3,0.3
		h7.2c0.8,0,1.4-0.6,1.4-1.4V188.5z M357.2,199.8c0-0.8-0.6-1.4-1.4-1.4h-7.2c-0.2,0-0.3,0.2-0.3,0.3v2.3c0,0.2,0.2,0.3,0.3,0.3h7.2
		c0.8,0,1.4-0.6,1.4-1.4V199.8z"/>
	<path class="st7" d="M411.3,194.2c0,10.9-8.1,18.4-19.7,18.4c-11.6,0-19.7-7.6-19.7-18.4s8.1-18.4,19.7-18.4
		C403.2,175.8,411.3,183.4,411.3,194.2z M397,194.2c0-3.2-2.2-5.5-5.3-5.5c-3.1,0-5.3,2.3-5.3,5.5c0,3,2.4,5.5,5.3,5.5
		C394.6,199.7,397,197.2,397,194.2z"/>
	<path class="st7" d="M451.9,194.2c0,10.9-8.1,18.4-19.7,18.4c-11.6,0-19.7-7.6-19.7-18.4s8.1-18.4,19.7-18.4
		C443.9,175.8,451.9,183.4,451.9,194.2z M437.6,194.2c0-3.2-2.2-5.5-5.3-5.5c-3.1,0-5.3,2.3-5.3,5.5c0,3,2.4,5.5,5.3,5.5
		C435.2,199.7,437.6,197.2,437.6,194.2z"/>
	<path class="st7" d="M497,177.1v34.3c0,0.2-0.2,0.4-0.4,0.4h-13c-0.2,0-0.4-0.2-0.4-0.4V202c0-0.4-0.6-0.5-0.7-0.1l-2.5,9.6
		c0,0.2-0.2,0.3-0.4,0.3h-7.7c-0.2,0-0.3-0.1-0.4-0.3l-2.5-9.5c-0.1-0.4-0.7-0.3-0.7,0.1v9.3c0,0.2-0.2,0.4-0.4,0.4h-13
		c-0.2,0-0.4-0.2-0.4-0.4v-34.3c0-0.2,0.2-0.4,0.4-0.4h15.6c0.2,0,0.3,0.1,0.4,0.3l4.5,15.9c0.1,0.4,0.6,0.4,0.7,0l4.5-15.9
		c0-0.2,0.2-0.3,0.4-0.3h15.6C496.8,176.7,497,176.9,497,177.1z"/>
	<path class="st7" d="M548.1,203.6c-0.5,4.7-5.7,8.1-12,8.1h-22.5c-0.2,0-0.3-0.2-0.3-0.3v-34.3c0-0.2,0.2-0.3,0.3-0.3h19.6
		c0.5,0,1,0,1.4,0c0.5,0,1,0,1.4,0.1c0.5,0,1,0.1,1.4,0.1c0.5,0.1,0.9,0.1,1.4,0.3c0.5,0.1,0.9,0.2,1.4,0.4c0.5,0.2,0.9,0.3,1.3,0.5
		c0.4,0.2,0.9,0.4,1.3,0.7c2.2,1.4,3.7,3.7,3.9,6.3c0.3,3.6-1.5,6.7-4.3,8.4c-0.2,0.2-0.2,0.5,0,0.6
		C546.2,195.7,548.6,199.4,548.1,203.6z M534.9,188.5c0-0.8-0.6-1.4-1.4-1.4h-7.2c-0.2,0-0.3,0.2-0.3,0.3v2.3c0,0.2,0.2,0.3,0.3,0.3
		h7.2c0.8,0,1.4-0.6,1.4-1.4V188.5z M534.9,199.8c0-0.8-0.6-1.4-1.4-1.4h-7.2c-0.2,0-0.3,0.2-0.3,0.3v2.3c0,0.2,0.2,0.3,0.3,0.3h7.2
		c0.8,0,1.4-0.6,1.4-1.4V199.8z"/>
	<path class="st7" d="M588.9,194.2c0,10.9-8.1,18.4-19.7,18.4s-19.7-7.6-19.7-18.4s8.1-18.4,19.7-18.4S588.9,183.4,588.9,194.2z
		 M574.6,194.2c0-3.2-2.2-5.5-5.3-5.5c-3.1,0-5.3,2.3-5.3,5.5c0,3,2.4,5.5,5.3,5.5S574.6,197.2,574.6,194.2z"/>
	<path class="st7" d="M624.3,211.1c0.2,0.2,0,0.6-0.3,0.6h-14.1c-0.1,0-0.2-0.1-0.3-0.2l-3.6-5.4c-0.1-0.2-0.5-0.2-0.6,0l-3.6,5.4
		c-0.1,0.1-0.2,0.2-0.3,0.2h-14.1c-0.3,0-0.5-0.3-0.3-0.6l11-16.7c0.1-0.1,0.1-0.3,0-0.4l-11-16.7c-0.2-0.2,0-0.6,0.3-0.6h14.1
		c0.1,0,0.2,0.1,0.3,0.2l3.6,5.4c0.1,0.2,0.5,0.2,0.6,0l3.6-5.4c0.1-0.1,0.2-0.2,0.3-0.2H624c0.3,0,0.5,0.3,0.3,0.6l-11,16.7
		c-0.1,0.1-0.1,0.3,0,0.4L624.3,211.1z"/>
</g>
<g class="st6">
	<path class="st8" d="M370.5,203.6c-0.5,4.7-5.7,8.1-12,8.1H336c-0.2,0-0.3-0.2-0.3-0.3v-34.3c0-0.2,0.2-0.3,0.3-0.3h19.6
		c0.5,0,1,0,1.4,0c0.5,0,1,0,1.4,0.1c0.5,0,1,0.1,1.4,0.1c0.5,0.1,0.9,0.1,1.4,0.3c0.5,0.1,0.9,0.2,1.4,0.4c0.5,0.2,0.9,0.3,1.3,0.5
		c0.4,0.2,0.9,0.4,1.3,0.7c2.2,1.4,3.7,3.7,3.9,6.3c0.3,3.6-1.5,6.7-4.3,8.4c-0.2,0.2-0.2,0.5,0,0.6
		C368.5,195.7,370.9,199.4,370.5,203.6z M357.2,188.5c0-0.8-0.6-1.4-1.4-1.4h-7.2c-0.2,0-0.3,0.2-0.3,0.3v2.3c0,0.2,0.2,0.3,0.3,0.3
		h7.2c0.8,0,1.4-0.6,1.4-1.4V188.5z M357.2,199.8c0-0.8-0.6-1.4-1.4-1.4h-7.2c-0.2,0-0.3,0.2-0.3,0.3v2.3c0,0.2,0.2,0.3,0.3,0.3h7.2
		c0.8,0,1.4-0.6,1.4-1.4V199.8z"/>
	<path class="st8" d="M411.3,194.2c0,10.9-8.1,18.4-19.7,18.4c-11.6,0-19.7-7.6-19.7-18.4s8.1-18.4,19.7-18.4
		C403.2,175.8,411.3,183.4,411.3,194.2z M397,194.2c0-3.2-2.2-5.5-5.3-5.5c-3.1,0-5.3,2.3-5.3,5.5c0,3,2.4,5.5,5.3,5.5
		C394.6,199.7,397,197.2,397,194.2z"/>
	<path class="st8" d="M451.9,194.2c0,10.9-8.1,18.4-19.7,18.4c-11.6,0-19.7-7.6-19.7-18.4s8.1-18.4,19.7-18.4
		C443.9,175.8,451.9,183.4,451.9,194.2z M437.6,194.2c0-3.2-2.2-5.5-5.3-5.5c-3.1,0-5.3,2.3-5.3,5.5c0,3,2.4,5.5,5.3,5.5
		C435.2,199.7,437.6,197.2,437.6,194.2z"/>
	<path class="st8" d="M497,177.1v34.3c0,0.2-0.2,0.4-0.4,0.4h-13c-0.2,0-0.4-0.2-0.4-0.4V202c0-0.4-0.6-0.5-0.7-0.1l-2.5,9.6
		c0,0.2-0.2,0.3-0.4,0.3h-7.7c-0.2,0-0.3-0.1-0.4-0.3l-2.5-9.5c-0.1-0.4-0.7-0.3-0.7,0.1v9.3c0,0.2-0.2,0.4-0.4,0.4h-13
		c-0.2,0-0.4-0.2-0.4-0.4v-34.3c0-0.2,0.2-0.4,0.4-0.4h15.6c0.2,0,0.3,0.1,0.4,0.3l4.5,15.9c0.1,0.4,0.6,0.4,0.7,0l4.5-15.9
		c0-0.2,0.2-0.3,0.4-0.3h15.6C496.8,176.7,497,176.9,497,177.1z"/>
	<path class="st8" d="M548.1,203.6c-0.5,4.7-5.7,8.1-12,8.1h-22.5c-0.2,0-0.3-0.2-0.3-0.3v-34.3c0-0.2,0.2-0.3,0.3-0.3h19.6
		c0.5,0,1,0,1.4,0c0.5,0,1,0,1.4,0.1c0.5,0,1,0.1,1.4,0.1c0.5,0.1,0.9,0.1,1.4,0.3c0.5,0.1,0.9,0.2,1.4,0.4c0.5,0.2,0.9,0.3,1.3,0.5
		c0.4,0.2,0.9,0.4,1.3,0.7c2.2,1.4,3.7,3.7,3.9,6.3c0.3,3.6-1.5,6.7-4.3,8.4c-0.2,0.2-0.2,0.5,0,0.6
		C546.2,195.7,548.6,199.4,548.1,203.6z M534.9,188.5c0-0.8-0.6-1.4-1.4-1.4h-7.2c-0.2,0-0.3,0.2-0.3,0.3v2.3c0,0.2,0.2,0.3,0.3,0.3
		h7.2c0.8,0,1.4-0.6,1.4-1.4V188.5z M534.9,199.8c0-0.8-0.6-1.4-1.4-1.4h-7.2c-0.2,0-0.3,0.2-0.3,0.3v2.3c0,0.2,0.2,0.3,0.3,0.3h7.2
		c0.8,0,1.4-0.6,1.4-1.4V199.8z"/>
	<path class="st8" d="M588.9,194.2c0,10.9-8.1,18.4-19.7,18.4s-19.7-7.6-19.7-18.4s8.1-18.4,19.7-18.4S588.9,183.4,588.9,194.2z
		 M574.6,194.2c0-3.2-2.2-5.5-5.3-5.5c-3.1,0-5.3,2.3-5.3,5.5c0,3,2.4,5.5,5.3,5.5S574.6,197.2,574.6,194.2z"/>
	<path class="st8" d="M624.3,211.1c0.2,0.2,0,0.6-0.3,0.6h-14.1c-0.1,0-0.2-0.1-0.3-0.2l-3.6-5.4c-0.1-0.2-0.5-0.2-0.6,0l-3.6,5.4
		c-0.1,0.1-0.2,0.2-0.3,0.2h-14.1c-0.3,0-0.5-0.3-0.3-0.6l11-16.7c0.1-0.1,0.1-0.3,0-0.4l-11-16.7c-0.2-0.2,0-0.6,0.3-0.6h14.1
		c0.1,0,0.2,0.1,0.3,0.2l3.6,5.4c0.1,0.2,0.5,0.2,0.6,0l3.6-5.4c0.1-0.1,0.2-0.2,0.3-0.2H624c0.3,0,0.5,0.3,0.3,0.6l-11,16.7
		c-0.1,0.1-0.1,0.3,0,0.4L624.3,211.1z"/>
</g>
<g>
	<path d="M50.2,172.5h47.1c3.7,0,6.7-3,6.7-6.7l0,0c0-3.7-3-6.7-6.7-6.7H36.7c-3.7,0-6.7,3-6.7,6.7v60.5c0,3.7,3,6.7,6.7,6.7l0,0
		c3.7,0,6.7-3,6.7-6.7v-47.1C43.5,175.5,46.5,172.5,50.2,172.5z"/>
</g>
<g>
	<path d="M920.5,179.2v47.1c0,3.7,3,6.7,6.7,6.7l0,0c3.7,0,6.7-3,6.7-6.7v-60.5c0-3.7-3-6.7-6.7-6.7h-60.5c-3.7,0-6.7,3-6.7,6.7l0,0
		c0,3.7,3,6.7,6.7,6.7h47.1C917.5,172.5,920.5,175.5,920.5,179.2z"/>
</g>
<g>
	<path d="M40.5,548.8v-47.1c0-3.7-3-6.7-6.7-6.7l0,0c-3.7,0-6.7,3-6.7,6.7v60.5c0,3.7,3,6.7,6.7,6.7h60.5c3.7,0,6.7-3,6.7-6.7l0,0
		c0-3.7-3-6.7-6.7-6.7H47.2C43.5,555.5,40.5,552.5,40.5,548.8z"/>
</g>
<g>
	<path d="M914.8,554.5h-47.1c-3.7,0-6.7,3-6.7,6.7l0,0c0,3.7,3,6.7,6.7,6.7h60.5c3.7,0,6.7-3,6.7-6.7v-60.5c0-3.7-3-6.7-6.7-6.7l0,0
		c-3.7,0-6.7,3-6.7,6.7v47.1C921.5,551.5,918.5,554.5,914.8,554.5z"/>
</g>
</svg>
