<?xml version="1.0" encoding="UTF-8"?><svg id="Layer_1" xmlns="http://www.w3.org/2000/svg" viewBox="0 0 300 300"><defs><style>.cls-1{fill:#333;}.cls-2{fill:#fff;stroke:#000;stroke-miterlimit:10;}.cls-3{fill:#1a1a1a;}.cls-4{fill:#666;}</style></defs><circle class="cls-1" cx="150" cy="150" r="148.5"/><path d="m150,3c39.3,0,76.2,15.3,103.9,43.1,27.8,27.7,43.1,64.6,43.1,103.9s-15.3,76.2-43.1,103.9c-27.7,27.8-64.6,43.1-103.9,43.1s-76.2-15.3-103.9-43.1C18.3,226.2,3,189.3,3,150s15.3-76.2,43.1-103.9C73.8,18.3,110.7,3,150,3m0-3C67.2,0,0,67.2,0,150s67.2,150,150,150,150-67.2,150-150S232.8,0,150,0h0Z"/><circle class="cls-4" cx="150" cy="150" r="97.5"/><path d="m150,54c52.9,0,96,43.1,96,96s-43.1,96-96,96-96-43.1-96-96,43.1-96,96-96m0-3c-54.7,0-99,44.3-99,99s44.3,99,99,99,99-44.3,99-99-44.3-99-99-99h0Z"/><circle class="cls-3" cx="150" cy="150" r="46"/><path d="m150,105.5c24.5,0,44.5,20,44.5,44.5s-20,44.5-44.5,44.5-44.5-20-44.5-44.5,20-44.5,44.5-44.5m0-3c-26.2,0-47.5,21.3-47.5,47.5s21.3,47.5,47.5,47.5,47.5-21.3,47.5-47.5-21.3-47.5-47.5-47.5h0Z"/><path class="cls-2" d="m115.95,80.37c.92,1.72,1.38,2.57,2.3,4.29.04.08,0,.19-.11.25-1.83.99-2.73,1.52-4.5,2.67-.1.07-.14.18-.09.26,2.16,3.31,3.23,4.97,5.39,8.28.05.08.02.18-.07.24-2.15,1.41-3.19,2.18-5.2,3.86-.08.07-.19.06-.25,0-2.54-3.03-3.81-4.54-6.35-7.57-.06-.07-.18-.06-.28.02-1.64,1.39-2.44,2.12-3.99,3.66-.09.09-.21.11-.28.04-1.38-1.38-2.07-2.07-3.44-3.44-.06-.06-.04-.19.06-.29,6.03-5.99,9.41-8.45,16.53-12.3.11-.06.24-.05.28.03Z"/><path class="cls-2" d="m140.2,87.92c-2.68.47-4.01.78-6.62,1.57-.06.02-.13,0-.17-.03-1.08-.92-1.64-1.37-2.79-2.23-.05-.04-.12-.05-.18-.02-.45.16-.68.24-1.13.4-.09.03-.14.13-.11.21.4,1.06.59,1.6.99,2.66.03.08-.02.17-.11.21-2.36.88-3.52,1.39-5.79,2.54-.09.05-.2.02-.24-.06-2.75-5.37-4.13-8.05-6.88-13.42-.04-.08.02-.19.13-.24,4.42-2.25,6.72-3.17,11.39-4.62,4.51-1.39,8.76.68,9.37,4.01.32,1.74-.31,3.46-1.45,4.86-.05.06-.05.14,0,.19,1.56,1.44,2.3,2.19,3.7,3.73.09.09.03.24-.11.26Zm-9.47-7.05c-.14-.83-1.16-1.26-2.17-.92-.73.25-1.1.37-1.83.64-.11.04-.17.14-.14.22.34.93.52,1.39.86,2.32.03.09.14.12.25.08.66-.24.99-.36,1.65-.58.86-.29,1.5-1.04,1.38-1.76Z"/><path class="cls-2" d="m159.56,87.88c-2.45-.42-3.68-.56-6.15-.7-.08,0-.15-.06-.17-.13-.08-.34-.12-.51-.2-.85-.02-.07-.09-.13-.17-.13-2.22-.11-3.33-.11-5.56,0-.08,0-.15.06-.17.13-.08.34-.12.51-.21.85-.02.07-.09.13-.17.13-2.47.14-3.71.28-6.15.69-.12.02-.22-.07-.21-.18,1-6.29,1.78-9.44,3.87-15.65.02-.07.11-.13.21-.13,4.49-.34,6.75-.34,11.24.02.1,0,.18.06.21.13,2.08,6.22,2.84,9.38,3.82,15.66.02.11-.09.2-.21.18Zm-7.99-6.45c-.47-1.45-.73-2.18-1.26-3.62,0-.02-.01-.04-.02-.06-.02-.08-.11-.12-.19-.12-.08,0-.17.04-.19.12,0,.02-.01.04-.02.06-.54,1.44-.79,2.17-1.27,3.62-.03.1.07.2.2.2,1.02-.02,1.53-.02,2.56,0,.13,0,.22-.09.2-.2Z"/><path class="cls-2" d="m170.28,84.84c2.44.84,3.65,1.32,6.01,2.42.1.05.15.15.11.23-.9,1.91-1.34,2.87-2.24,4.78-.04.08-.14.11-.23.07-2.38-1.11-3.6-1.59-6.07-2.4-5.33-1.76-8.06-4.87-7.26-9.7.8-4.83,5.33-7.16,12.1-4.93,3.14,1.04,4.69,1.65,7.72,3.06.12.05.18.16.14.25-.9,1.91-1.34,2.87-2.24,4.78-.04.08-.16.11-.26.06-2.52-1.17-3.81-1.69-6.41-2.58-1.91-.65-3.14-.24-3.52,1.08-.38,1.31.37,2.27,2.16,2.88h0Z"/><path class="cls-2" d="m190,103.56c-2.06-2.05-3.15-2.99-5.39-4.73-.06-.04-.09-.11-.08-.17.17-2.39.2-3.61.15-6.06,0-.19-.28-.3-.38-.15-1.07,1.61-1.61,2.41-2.68,4.02-.05.08-.17.1-.26.04-2.14-1.42-3.25-2.07-5.51-3.22-.09-.05-.14-.16-.09-.24,2.72-5.37,4.09-8.06,6.81-13.43.04-.09.18-.1.3-.04,2.87,1.47,4.27,2.29,7,4.1.11.08.16.2.11.28-1.04,1.55-1.56,2.33-2.59,3.89-.1.15.12.37.31.32,2.36-.74,3.58-1.06,6.08-1.59.07-.01.15.01.22.06,2.85,2.2,4.23,3.4,6.85,6,.14.14.13.33-.03.34-3.85.24-5.72.51-9.3,1.28-.07.01-.11.07-.11.13-.2,3.74-.42,5.57-1.1,9.12-.03.14-.2.17-.31.06Z"/><path class="cls-2" d="m145.72,155.48v1.66c0,.29.23.52.52.52h24.87c.29,0,.52.23.52.52v14.22c0,.29-.23.52-.52.52h-43.54c-.29,0-.52-.23-.52-.52v-15.88c0-8.26,6.7-14.96,14.96-14.96h8.9c.74,0,1.35-.6,1.35-1.35s-.6-1.35-1.35-1.35h-21.54c-.29,0-.52-.23-.52-.52v-14.22c0-.29.23-.52.52-.52h27.29c8.26,0,14.96,6.7,14.96,14.96v1.44c0,8.26-6.7,14.96-14.96,14.96h-10.43c-.29,0-.52.23-.52.52Z"/></svg>