<?xml version="1.0" encoding="utf-8"?>
<!-- Generator: Adobe Illustrator 27.4.0, SVG Export Plug-In . SVG Version: 6.00 Build 0)  -->
<svg version="1.1" id="Layer_1" xmlns="http://www.w3.org/2000/svg" xmlns:xlink="http://www.w3.org/1999/xlink" x="0px" y="0px"
	 viewBox="0 0 300 300" style="enable-background:new 0 0 300 300;" xml:space="preserve">
<style type="text/css">
	.st0{fill:none;stroke:#F5BFFF;stroke-miterlimit:10;}
	.st1{fill:#FFFFFF;stroke:#F5BFFF;stroke-miterlimit:10;}
</style>
<circle class="st0" cx="150" cy="150" r="148.5"/>
<path class="st0" d="M150,3c39.3,0,76.2,15.3,103.9,43.1C281.7,73.8,297,110.7,297,150s-15.3,76.2-43.1,103.9
	C226.2,281.7,189.3,297,150,297s-76.2-15.3-103.9-43.1C18.3,226.2,3,189.3,3,150S18.3,73.8,46.1,46.1C73.8,18.3,110.7,3,150,3
	 M150,0C67.2,0,0,67.2,0,150s67.2,150,150,150s150-67.2,150-150S232.8,0,150,0L150,0z"/>
<path class="st0" d="M150,54c52.9,0,96,43.1,96,96s-43.1,96-96,96s-96-43.1-96-96S97.1,54,150,54 M150,51c-54.7,0-99,44.3-99,99
	s44.3,99,99,99s99-44.3,99-99S204.7,51,150,51L150,51z"/>
<circle class="st0" cx="150" cy="150" r="46"/>
<path class="st0" d="M150,105.5c24.5,0,44.5,20,44.5,44.5s-20,44.5-44.5,44.5s-44.5-20-44.5-44.5S125.5,105.5,150,105.5 M150,102.5
	c-26.2,0-47.5,21.3-47.5,47.5s21.3,47.5,47.5,47.5s47.5-21.3,47.5-47.5S176.2,102.5,150,102.5L150,102.5z"/>
<path class="st0" d="M115.9,80.4c0.9,1.7,1.4,2.6,2.3,4.3c0,0.1,0,0.2-0.1,0.2c-1.8,1-2.7,1.5-4.5,2.7c-0.1,0.1-0.1,0.2-0.1,0.3
	c2.2,3.3,3.2,5,5.4,8.3c0.1,0.1,0,0.2-0.1,0.2c-2.2,1.4-3.2,2.2-5.2,3.9c-0.1,0.1-0.2,0.1-0.2,0c-2.5-3-3.8-4.5-6.3-7.6
	c-0.1-0.1-0.2-0.1-0.3,0c-1.6,1.4-2.4,2.1-4,3.7c-0.1,0.1-0.2,0.1-0.3,0c-1.4-1.4-2.1-2.1-3.4-3.4c-0.1-0.1,0-0.2,0.1-0.3
	c6-6,9.4-8.4,16.5-12.3C115.8,80.3,115.9,80.3,115.9,80.4z"/>
<path class="st0" d="M140.2,87.9c-2.7,0.5-4,0.8-6.6,1.6c-0.1,0-0.1,0-0.2,0c-1.1-0.9-1.6-1.4-2.8-2.2c-0.1,0-0.1-0.1-0.2,0
	c-0.4,0.2-0.7,0.2-1.1,0.4c-0.1,0-0.1,0.1-0.1,0.2c0.4,1.1,0.6,1.6,1,2.7c0,0.1,0,0.2-0.1,0.2c-2.4,0.9-3.5,1.4-5.8,2.5
	c-0.1,0.1-0.2,0-0.2-0.1c-2.8-5.4-4.1-8.1-6.9-13.4c0-0.1,0-0.2,0.1-0.2c4.4-2.2,6.7-3.2,11.4-4.6c4.5-1.4,8.8,0.7,9.4,4
	c0.3,1.7-0.3,3.5-1.4,4.9c-0.1,0.1-0.1,0.1,0,0.2c1.6,1.4,2.3,2.2,3.7,3.7C140.4,87.8,140.3,87.9,140.2,87.9L140.2,87.9z
	 M130.7,80.9c-0.1-0.8-1.2-1.3-2.2-0.9c-0.7,0.2-1.1,0.4-1.8,0.6c-0.1,0-0.2,0.1-0.1,0.2c0.3,0.9,0.5,1.4,0.9,2.3
	c0,0.1,0.1,0.1,0.2,0.1c0.7-0.2,1-0.4,1.6-0.6C130.2,82.3,130.8,81.6,130.7,80.9z"/>
<path class="st0" d="M159.6,87.9c-2.4-0.4-3.7-0.6-6.1-0.7c-0.1,0-0.1-0.1-0.2-0.1c-0.1-0.3-0.1-0.5-0.2-0.8c0-0.1-0.1-0.1-0.2-0.1
	c-2.2-0.1-3.3-0.1-5.6,0c-0.1,0-0.1,0.1-0.2,0.1c-0.1,0.3-0.1,0.5-0.2,0.8c0,0.1-0.1,0.1-0.2,0.1c-2.5,0.1-3.7,0.3-6.1,0.7
	c-0.1,0-0.2-0.1-0.2-0.2c1-6.3,1.8-9.4,3.9-15.7c0-0.1,0.1-0.1,0.2-0.1c4.5-0.3,6.8-0.3,11.2,0c0.1,0,0.2,0.1,0.2,0.1
	c2.1,6.2,2.8,9.4,3.8,15.7C159.8,87.8,159.7,87.9,159.6,87.9L159.6,87.9z M151.6,81.4c-0.5-1.4-0.7-2.2-1.3-3.6c0,0,0,0,0-0.1
	c0-0.1-0.1-0.1-0.2-0.1s-0.2,0-0.2,0.1c0,0,0,0,0,0.1c-0.5,1.4-0.8,2.2-1.3,3.6c0,0.1,0.1,0.2,0.2,0.2c1,0,1.5,0,2.6,0
	C151.5,81.6,151.6,81.5,151.6,81.4L151.6,81.4z"/>
<path class="st0" d="M170.3,84.8c2.4,0.8,3.6,1.3,6,2.4c0.1,0.1,0.1,0.2,0.1,0.2c-0.9,1.9-1.3,2.9-2.2,4.8c0,0.1-0.1,0.1-0.2,0.1
	c-2.4-1.1-3.6-1.6-6.1-2.4c-5.3-1.8-8.1-4.9-7.3-9.7c0.8-4.8,5.3-7.2,12.1-4.9c3.1,1,4.7,1.7,7.7,3.1c0.1,0.1,0.2,0.2,0.1,0.2
	c-0.9,1.9-1.3,2.9-2.2,4.8c0,0.1-0.2,0.1-0.3,0.1c-2.5-1.2-3.8-1.7-6.4-2.6c-1.9-0.7-3.1-0.2-3.5,1.1
	C167.7,83.3,168.5,84.2,170.3,84.8L170.3,84.8L170.3,84.8z"/>
<path class="st0" d="M190,103.6c-2.1-2.1-3.1-3-5.4-4.7c-0.1,0-0.1-0.1-0.1-0.2c0.2-2.4,0.2-3.6,0.1-6.1c0-0.2-0.3-0.3-0.4-0.2
	c-1.1,1.6-1.6,2.4-2.7,4c-0.1,0.1-0.2,0.1-0.3,0c-2.1-1.4-3.2-2.1-5.5-3.2c-0.1-0.1-0.1-0.2-0.1-0.2c2.7-5.4,4.1-8.1,6.8-13.4
	c0-0.1,0.2-0.1,0.3,0c2.9,1.5,4.3,2.3,7,4.1c0.1,0.1,0.2,0.2,0.1,0.3c-1,1.6-1.6,2.3-2.6,3.9c-0.1,0.2,0.1,0.4,0.3,0.3
	c2.4-0.7,3.6-1.1,6.1-1.6c0.1,0,0.1,0,0.2,0.1c2.9,2.2,4.2,3.4,6.9,6c0.1,0.1,0.1,0.3,0,0.3c-3.9,0.2-5.7,0.5-9.3,1.3
	c-0.1,0-0.1,0.1-0.1,0.1c-0.2,3.7-0.4,5.6-1.1,9.1C190.3,103.6,190.1,103.7,190,103.6L190,103.6z"/>
<path class="st1" d="M173.6,143.8v12.4c0,0.3-0.2,0.5-0.5,0.5h-2v17.4c0,0.3-0.2,0.5-0.5,0.5h-18.3c-0.3,0-0.5-0.2-0.5-0.5v-16.9
	c0-0.3-0.2-0.5-0.5-0.5h-24.2c-0.3,0-0.5-0.2-0.5-0.5v-30.4c0-0.3,0.2-0.5,0.5-0.5h18.3c0.3,0,0.5,0.2,0.5,0.5v16.9
	c0,0.3,0.2,0.5,0.5,0.5h4.9c0.3,0,0.5-0.2,0.5-0.5v-16.9c0-0.3,0.2-0.5,0.5-0.5h18.3c0.3,0,0.5,0.2,0.5,0.5v17.4h2
	C173.4,143.3,173.6,143.5,173.6,143.8L173.6,143.8z"/>
</svg>
