<?xml version="1.0" encoding="utf-8"?>
<!-- Generator: Adobe Illustrator 27.3.1, SVG Export Plug-In . SVG Version: 6.00 Build 0)  -->
<svg version="1.1" id="Layer_1" xmlns="http://www.w3.org/2000/svg" xmlns:xlink="http://www.w3.org/1999/xlink" x="0px" y="0px"
	 viewBox="0 0 145.4 143.5" style="enable-background:new 0 0 145.4 143.5;" xml:space="preserve">
<style type="text/css">
	.st0{fill:#FFFFFF;}
</style>
<g>
	<polygon class="st0" points="57.4,141.8 57.4,87 2.7,87 2.7,56.5 57.4,56.5 57.4,1.8 87.9,1.8 87.9,56.5 142.7,56.5 142.7,87 
		87.9,87 87.9,141.8 	"/>
	<path d="M87.4,2.3V56v1h1h53.8v29.5H88.4h-1v1v53.8H57.9V87.5v-1h-1H3.2V57h53.8h1v-1V2.3H87.4 M88.4,1.3H56.9V56H2.2v31.5h54.8
		v54.8h31.5V87.5h54.8V56H88.4V1.3L88.4,1.3z"/>
</g>
</svg>
